# xmcd
#
# Track frame offsets:
#	150
#	13561
#	27057
#	41019
#	53211
#	66660
#	78221
#	91618
#	102692
#	115169
#	127781
#	138707
#	149813
#	162730
#	174654
#	188202
#	200655
#	214391
#
# Disc length: 3042 seconds
#
# Revision: 2
# Processed by: cddbd v1.5.2PL0 Copyright (c) Steve Scherf et al.
# Submitted via: audiograbber 1.83.01
#
DISCID=110be012
DTITLE=J.J. Johnson - Quadromania, CD 1
DYEAR=1900
DGENRE=Jazz
TTITLE0=Jay Bird
TTITLE1=Coppin' The Bop
TTITLE2=Jay Jay
TTITLE3=Mad Be-Bop
TTITLE4=Boneology
TTITLE5=Down Vernon's Alley
TTITLE6=Yesterdays
TTITLE7=Riffette
TTITLE8=Audobon
TTITLE9=Don't Blame Me
TTITLE10=Goof Square
TTITLE11=Bee Jay
TTITLE12=Elysses
TTITLE13=Opus V
TTITLE14=Hilo
TTITLE15=Fox Hunt
TTITLE16=Afternoon In Paris - Take 1
TTITLE17=Afternoon In Paris - Take 2
EXTD=
EXTT0=
EXTT1=
EXTT2=
EXTT3=
EXTT4=
EXTT5=
EXTT6=
EXTT7=
EXTT8=
EXTT9=
EXTT10=
EXTT11=
EXTT12=
EXTT13=
EXTT14=
EXTT15=
EXTT16=
EXTT17=
PLAYORDER=
